<svg style="background-color:white;" xmlns="http://www.w3.org/2000/svg" xmlns:xlink="http://www.w3.org/1999/xlink" xml:lang="en" height="270.8pt" width="501.248pt" viewBox="-90.78399999999999 -36.2 501.248 270.8"><path d="M 0.0,-0.0 L 90,-0 L 180,-0" style="stroke:black;fill:none;stroke-width:2.0;stroke-dasharray:-;stroke-linecap:round;stroke-linejoin:round;" /><path d="M 180.0,-0.0 L 270,-0 L 360,-0" style="stroke:black;fill:none;stroke-width:2.0;stroke-dasharray:-;stroke-linecap:round;stroke-linejoin:round;" /><path d="M 0.0,108.0 L 90,108 L 180,108" style="stroke:black;fill:none;stroke-width:2.0;stroke-dasharray:-;stroke-linecap:round;stroke-linejoin:round;" /><path d="M 180.0,108.0 L 270,108 L 360,108" style="stroke:black;fill:none;stroke-width:2.0;stroke-dasharray:-;stroke-linecap:round;stroke-linejoin:round;" /><path d="M 180.0,-0.0 L 180,36 L 189,39 L 171,45 L 189,51 L 171,57 L 189,63 L 171,69 L 180,72 L 180,108" style="stroke:black;fill:none;stroke-width:2.0;stroke-dasharray:-;stroke-linecap:round;stroke-linejoin:round;" /><path d="M 0.0,216.0 L 180,216 L 360,216" style="stroke:black;fill:none;stroke-width:2.0;stroke-dasharray:-;stroke-linecap:round;stroke-linejoin:round;" /><text x="90.0" y="-17.6" dominant-baseline="ideographic" fill="black" font-size="14.0" font-family="sans" text-anchor="middle"><tspan x="90.0" dy="14.0">CAN-H</tspan></text><text x="90.0" y="97.60000000000001" dominant-baseline="hanging" fill="black" font-size="14.0" font-family="sans" text-anchor="middle"><tspan x="90.0" dy="14.0">CAN-L</tspan></text><text x="180.0" y="-31.6" dominant-baseline="ideographic" fill="black" font-size="14.0" font-family="sans" text-anchor="middle"><tspan x="180.0" dy="14.0">120 ohm</tspan><tspan x="180.0" dy="14.0">(onboard)</tspan></text><circle cx="0" cy="-0" r="2.7" style="stroke:black;fill:white;stroke-width:2.0;stroke-dasharray:-;" /><text x="-6.3" y="-21.0" dominant-baseline="central" fill="black" font-size="14.0" font-family="sans" text-anchor="end"><tspan x="-6.3" dy="14.0">MCP2518FD</tspan><tspan x="-6.3" dy="14.0">H</tspan></text><circle cx="360" cy="-0" r="2.7" style="stroke:black;fill:white;stroke-width:2.0;stroke-dasharray:-;" /><text x="366.3" y="-21.0" dominant-baseline="central" fill="black" font-size="14.0" font-family="sans" text-anchor="start"><tspan x="366.3" dy="14.0">Slot C</tspan><tspan x="366.3" dy="14.0">Pin 17</tspan></text><circle cx="0" cy="108" r="2.7" style="stroke:black;fill:white;stroke-width:2.0;stroke-dasharray:-;" /><text x="-6.3" y="87.0" dominant-baseline="central" fill="black" font-size="14.0" font-family="sans" text-anchor="end"><tspan x="-6.3" dy="14.0">MCP2518FD</tspan><tspan x="-6.3" dy="14.0">L</tspan></text><circle cx="360" cy="108" r="2.7" style="stroke:black;fill:white;stroke-width:2.0;stroke-dasharray:-;" /><text x="366.3" y="87.0" dominant-baseline="central" fill="black" font-size="14.0" font-family="sans" text-anchor="start"><tspan x="366.3" dy="14.0">Slot C</tspan><tspan x="366.3" dy="14.0">Pin 11</tspan></text><circle cx="0" cy="216" r="2.7" style="stroke:black;fill:white;stroke-width:2.0;stroke-dasharray:-;" /><text x="-6.3" y="195.0" dominant-baseline="central" fill="black" font-size="14.0" font-family="sans" text-anchor="end"><tspan x="-6.3" dy="14.0">MCP2518FD</tspan><tspan x="-6.3" dy="14.0">G</tspan></text><circle cx="360" cy="216" r="2.7" style="stroke:black;fill:white;stroke-width:2.0;stroke-dasharray:-;" /><text x="366.3" y="195.0" dominant-baseline="central" fill="black" font-size="14.0" font-family="sans" text-anchor="start"><tspan x="366.3" dy="14.0">Slot C</tspan><tspan x="366.3" dy="14.0">Pin 1</tspan></text></svg>