<svg xmlns="http://www.w3.org/2000/svg" xmlns:xlink="http://www.w3.org/1999/xlink" xml:lang="en" height="184.79999999999998pt" width="552.944pt" viewBox="-41.523999999999994 -180.19999999999996 552.944 184.79999999999998"><path d="M 216.0,-0.0 L 324,-0 L 324,-144 L 216,-144 L 216,-0" style="stroke:black;fill:none;stroke-width:2.0;stroke-dasharray:-;stroke-linecap:round;stroke-linejoin:round;" /><path d="M 216.0,-18.0 L 198,-18" style="stroke:black;fill:none;stroke-width:2.0;stroke-dasharray:-;stroke-linecap:round;stroke-linejoin:round;" /><path d="M 216.0,-54.0 L 198,-54" style="stroke:black;fill:none;stroke-width:2.0;stroke-dasharray:-;stroke-linecap:round;stroke-linejoin:round;" /><path d="M 216.0,-90.0 L 198,-90" style="stroke:black;fill:none;stroke-width:2.0;stroke-dasharray:-;stroke-linecap:round;stroke-linejoin:round;" /><path d="M 216.0,-126.0 L 198,-126" style="stroke:black;fill:none;stroke-width:2.0;stroke-dasharray:-;stroke-linecap:round;stroke-linejoin:round;" /><path d="M 324.0,-18.0 L 342,-18" style="stroke:black;fill:none;stroke-width:2.0;stroke-dasharray:-;stroke-linecap:round;stroke-linejoin:round;" /><path d="M 324.0,-54.0 L 342,-54" style="stroke:black;fill:none;stroke-width:2.0;stroke-dasharray:-;stroke-linecap:round;stroke-linejoin:round;" /><path d="M 324.0,-90.0 L 342,-90" style="stroke:black;fill:none;stroke-width:2.0;stroke-dasharray:-;stroke-linecap:round;stroke-linejoin:round;" /><path d="M 324.0,-126.0 L 342,-126" style="stroke:black;fill:none;stroke-width:2.0;stroke-dasharray:-;stroke-linecap:round;stroke-linejoin:round;" /><path d="M 198.0,-18.0 L 144,-18 L 90,-18" style="stroke:black;fill:none;stroke-width:2.0;stroke-dasharray:-;stroke-linecap:round;stroke-linejoin:round;" /><path d="M 198.0,-54.0 L 144,-54 L 90,-54" style="stroke:black;fill:none;stroke-width:2.0;stroke-dasharray:-;stroke-linecap:round;stroke-linejoin:round;" /><path d="M 198.0,-90.0 L 144,-90 L 90,-90" style="stroke:black;fill:none;stroke-width:2.0;stroke-dasharray:-;stroke-linecap:round;stroke-linejoin:round;" /><path d="M 198.0,-126.0 L 162,-126 L 126,-126" style="stroke:black;fill:none;stroke-width:2.0;stroke-dasharray:-;stroke-linecap:round;stroke-linejoin:round;" /><path d="M 126.0,-126.00000000000001 L 126,-111.6 L 117,-111.6 L 135,-111.6 M 119.7,-107.28 L 132.3,-107.28 M 124.2,-102.96 L 127.8,-102.96" style="stroke:black;fill:none;stroke-width:2.0;stroke-dasharray:-;stroke-linecap:round;stroke-linejoin:round;" /><path d="M 342.0,-18.0 L 378,-18 L 414,-18" style="stroke:black;fill:none;stroke-width:2.0;stroke-dasharray:-;stroke-linecap:round;stroke-linejoin:round;" /><path d="M 342.0,-54.0 L 378,-54 L 414,-54" style="stroke:black;fill:none;stroke-width:2.0;stroke-dasharray:-;stroke-linecap:round;stroke-linejoin:round;" /><path d="M 342.0,-90.0 L 378,-90 L 414,-90" style="stroke:black;fill:none;stroke-width:2.0;stroke-dasharray:-;stroke-linecap:round;stroke-linejoin:round;" /><path d="M 342.0,-126.0 L 378,-126 L 414,-126" style="stroke:black;fill:none;stroke-width:2.0;stroke-dasharray:-;stroke-linecap:round;stroke-linejoin:round;" /><path d="M 414.0,-126.0 L 414,-111.6 L 405,-111.6 L 423,-111.6 M 407.7,-107.28 L 420.3,-107.28 M 412.2,-102.96 L 415.8,-102.96" style="stroke:black;fill:none;stroke-width:2.0;stroke-dasharray:-;stroke-linecap:round;stroke-linejoin:round;" /><text x="221.4" y="-32.0" dominant-baseline="central" fill="black" font-size="14" font-family="sans" text-anchor="start"><tspan x="221.4" dy="14">INC</tspan></text><text x="221.4" y="-68.0" dominant-baseline="central" fill="black" font-size="14" font-family="sans" text-anchor="start"><tspan x="221.4" dy="14">U/D</tspan></text><text x="221.4" y="-104.0" dominant-baseline="central" fill="black" font-size="14" font-family="sans" text-anchor="start"><tspan x="221.4" dy="14">CS</tspan></text><text x="221.4" y="-140.0" dominant-baseline="central" fill="black" font-size="14" font-family="sans" text-anchor="start"><tspan x="221.4" dy="14">VSS</tspan></text><text x="318.59999999999997" y="-32.0" dominant-baseline="central" fill="black" font-size="14" font-family="sans" text-anchor="end"><tspan x="318.59999999999997" dy="14">VCC</tspan></text><text x="318.59999999999997" y="-68.0" dominant-baseline="central" fill="black" font-size="14" font-family="sans" text-anchor="end"><tspan x="318.59999999999997" dy="14">VH</tspan></text><text x="318.59999999999997" y="-104.0" dominant-baseline="central" fill="black" font-size="14" font-family="sans" text-anchor="end"><tspan x="318.59999999999997" dy="14">VW</tspan></text><text x="318.59999999999997" y="-140.0" dominant-baseline="central" fill="black" font-size="14" font-family="sans" text-anchor="end"><tspan x="318.59999999999997" dy="14">VL</tspan></text><text x="270.0" y="-175.6" dominant-baseline="ideographic" fill="black" font-size="14.0" font-family="sans" text-anchor="middle"><tspan x="270.0" dy="14.0">X9C503S</tspan><tspan x="270.0" dy="14.0">50k DigiPot</tspan></text><circle cx="90" cy="-18" r="2.7" style="stroke:black;fill:white;stroke-width:2.0;stroke-dasharray:-;" /><text x="83.7" y="-32.000000000000014" dominant-baseline="central" fill="black" font-size="14.0" font-family="sans" text-anchor="end"><tspan x="83.7" dy="14.0">ESP32 GPIO (INC)</tspan></text><circle cx="90" cy="-54" r="2.7" style="stroke:black;fill:white;stroke-width:2.0;stroke-dasharray:-;" /><text x="83.7" y="-68.00000000000001" dominant-baseline="central" fill="black" font-size="14.0" font-family="sans" text-anchor="end"><tspan x="83.7" dy="14.0">ESP32 GPIO (U/D)</tspan></text><circle cx="90" cy="-90" r="2.7" style="stroke:black;fill:white;stroke-width:2.0;stroke-dasharray:-;" /><text x="83.7" y="-104.00000000000001" dominant-baseline="central" fill="black" font-size="14.0" font-family="sans" text-anchor="end"><tspan x="83.7" dy="14.0">ESP32 GPIO (CS)</tspan></text><circle cx="414" cy="-18" r="2.7" style="stroke:black;fill:white;stroke-width:2.0;stroke-dasharray:-;" /><text x="420.3" y="-32.0" dominant-baseline="central" fill="black" font-size="14.0" font-family="sans" text-anchor="start"><tspan x="420.3" dy="14.0">3.3V</tspan></text><circle cx="414" cy="-54" r="2.7" style="stroke:black;fill:white;stroke-width:2.0;stroke-dasharray:-;" /><text x="420.3" y="-68.0" dominant-baseline="central" fill="black" font-size="14.0" font-family="sans" text-anchor="start"><tspan x="420.3" dy="14.0">Boost Adj (H)</tspan></text><circle cx="414" cy="-90" r="2.7" style="stroke:black;fill:white;stroke-width:2.0;stroke-dasharray:-;" /><text x="420.3" y="-104.0" dominant-baseline="central" fill="black" font-size="14.0" font-family="sans" text-anchor="start"><tspan x="420.3" dy="14.0">Boost Adj (W)</tspan></text></svg>