<svg xmlns="http://www.w3.org/2000/svg" xmlns:xlink="http://www.w3.org/1999/xlink" xml:lang="en" height="231.51888446931108pt" width="845.492pt" viewBox="-69.79599999999999 -203.8788844693111 845.492 231.51888446931108"><rect x="-69.79599999999999" y="-203.8788844693111" width="845.492" height="231.51888446931108" fill="white"/><circle cx="0" cy="-63" r="18" style="stroke:black;fill:none;stroke-width:2.0;stroke-dasharray:-;" /><path d="M 495.71 -141.45 a 9 13.5 0 0 1 4.63 13.43" style="stroke:black;fill:none;stroke-width:2.0;stroke-dasharray:-;" /><path d="M 489.569 -144.803 L 497.007 -143.819 L 494.419 -139.079 Z" style="stroke:black;fill:black;stroke-linecap:butt;stroke-linejoin:miter;" /><polygon points="531,-75.6 522,-63 513,-75.6 " style="stroke:black;fill:none;stroke-width:2.0;stroke-dasharray:-;stroke-linecap:round;stroke-linejoin:round;" /><polygon points="522,-63 531,-50.4 513,-50.4 " style="stroke:black;fill:none;stroke-width:2.0;stroke-dasharray:-;stroke-linecap:round;stroke-linejoin:round;" /><path d="M 0.0,-0.0 L 0,14.4 L -9,14.4 L 9,14.4 M -6.3,18.72 L 6.3,18.72 M -1.8,23.04 L 1.8,23.04" style="stroke:black;fill:none;stroke-width:2.0;stroke-dasharray:-;stroke-linecap:round;stroke-linejoin:round;" /><path d="M 0.0,-0.0 L 0,-45 L 0,-45 M 0,-81 L 0,-81 L 0,-126" style="stroke:black;fill:none;stroke-width:2.0;stroke-dasharray:-;stroke-linecap:round;stroke-linejoin:round;" /><path d="M 3.6000000000000036,-54.0 L -3.6,-54" style="stroke:black;fill:none;stroke-width:2.0;stroke-dasharray:-;stroke-linecap:round;stroke-linejoin:round;" /><path d="M 4.188292053083947e-15,-68.39999999999999 L 0,-75.6" style="stroke:black;fill:none;stroke-width:2.0;stroke-dasharray:-;stroke-linecap:round;stroke-linejoin:round;" /><path d="M 3.6000000000000045,-72.0 L -3.6,-72" style="stroke:black;fill:none;stroke-width:2.0;stroke-dasharray:-;stroke-linecap:round;stroke-linejoin:round;" /><path d="M 7.715274834628325e-15,-126.0 L 63,-126 L 126,-126" style="stroke:black;fill:none;stroke-width:2.0;stroke-dasharray:-;stroke-linecap:round;stroke-linejoin:round;" /><path d="M 126.0,-126.0 L 171,-126 L 171,-135 L 207,-135 L 207,-117 L 171,-117 L 171,-126 M 207,-126 L 252,-126" style="stroke:black;fill:none;stroke-width:2.0;stroke-dasharray:-;stroke-linecap:round;stroke-linejoin:round;" /><path d="M 171.0,-126.0 L 207,-126" style="stroke:black;fill:none;stroke-width:2.0;stroke-dasharray:-;stroke-linecap:round;stroke-linejoin:round;" /><path d="M 252.0,-126.0 L 261,-126 L 270,-126" style="stroke:black;fill:none;stroke-width:2.0;stroke-dasharray:-;stroke-linecap:round;stroke-linejoin:round;" /><path d="M 270.0,-126.0 L 315,-126 L 315.033,-127.463 L 315.134,-128.964 L 315.304,-130.472 L 315.542,-131.955 L 315.846,-133.382 L 316.214,-134.722 L 316.64,-135.947 L 317.12,-137.033 L 317.645,-137.954 L 318.208,-138.693 L 318.8,-139.234 L 319.412,-139.565 L 320.034,-139.679 L 320.657,-139.574 L 321.269,-139.252 L 321.863,-138.72 L 322.427,-137.989 L 322.954,-137.075 L 323.435,-135.996 L 323.864,-134.776 L 324.234,-133.44 L 324.541,-132.016 L 324.782,-130.535 L 324.955,-129.027 L 325.059,-127.525 L 325.094,-126.06 L 325.065,-124.663 L 324.974,-123.363 L 324.826,-122.188 L 324.628,-121.162 L 324.388,-120.308 L 324.112,-119.643 L 323.811,-119.181 L 323.493,-118.932 L 323.169,-118.901 L 322.849,-119.089 L 322.542,-119.492 L 322.258,-120.101 L 322.006,-120.904 L 321.795,-121.883 L 321.633,-123.019 L 321.525,-124.286 L 321.478,-125.659 L 321.495,-127.108 L 321.58,-128.603 L 321.733,-130.112 L 321.955,-131.604 L 322.244,-133.047 L 322.597,-134.41 L 323.01,-135.666 L 323.477,-136.787 L 323.991,-137.749 L 324.546,-138.534 L 325.132,-139.123 L 325.74,-139.505 L 326.361,-139.671 L 326.984,-139.619 L 327.6,-139.349 L 328.199,-138.866 L 328.771,-138.181 L 329.308,-137.309 L 329.801,-136.268 L 330.243,-135.08 L 330.627,-133.769 L 330.95,-132.364 L 331.207,-130.893 L 331.396,-129.389 L 331.516,-127.883 L 331.568,-126.406 L 331.554,-124.99 L 331.477,-123.664 L 331.343,-122.457 L 331.156,-121.393 L 330.925,-120.496 L 330.657,-119.784 L 330.361,-119.273 L 330.046,-118.972 L 329.723,-118.889 L 329.401,-119.024 L 329.09,-119.376 L 328.8,-119.937 L 328.54,-120.695 L 328.318,-121.634 L 328.144,-122.734 L 328.022,-123.972 L 327.96,-125.322 L 327.962,-126.755 L 328.03,-128.242 L 328.167,-129.751 L 328.372,-131.25 L 328.645,-132.707 L 328.983,-134.092 L 329.382,-135.376 L 329.837,-136.532 L 330.341,-137.534 L 330.886,-138.363 L 331.466,-139 L 332.07,-139.433 L 332.688,-139.652 L 333.312,-139.652 L 333.93,-139.433 L 334.534,-139 L 335.114,-138.363 L 335.659,-137.534 L 336.163,-136.532 L 336.618,-135.376 L 337.017,-134.092 L 337.355,-132.707 L 337.628,-131.25 L 337.833,-129.751 L 337.97,-128.242 L 338.038,-126.755 L 338.04,-125.322 L 337.978,-123.972 L 337.856,-122.734 L 337.682,-121.634 L 337.46,-120.695 L 337.2,-119.937 L 336.91,-119.376 L 336.599,-119.024 L 336.277,-118.889 L 335.954,-118.972 L 335.639,-119.273 L 335.343,-119.784 L 335.075,-120.496 L 334.844,-121.393 L 334.657,-122.457 L 334.523,-123.664 L 334.446,-124.99 L 334.432,-126.406 L 334.484,-127.883 L 334.604,-129.389 L 334.793,-130.893 L 335.05,-132.364 L 335.373,-133.769 L 335.757,-135.08 L 336.199,-136.268 L 336.692,-137.309 L 337.229,-138.181 L 337.801,-138.866 L 338.4,-139.349 L 339.016,-139.619 L 339.639,-139.671 L 340.26,-139.505 L 340.868,-139.123 L 341.454,-138.534 L 342.009,-137.749 L 342.523,-136.787 L 342.99,-135.666 L 343.403,-134.41 L 343.756,-133.047 L 344.045,-131.604 L 344.267,-130.112 L 344.42,-128.603 L 344.505,-127.108 L 344.522,-125.659 L 344.475,-124.286 L 344.367,-123.019 L 344.205,-121.883 L 343.994,-120.904 L 343.742,-120.101 L 343.458,-119.492 L 343.151,-119.089 L 342.831,-118.901 L 342.507,-118.932 L 342.189,-119.181 L 341.888,-119.643 L 341.612,-120.308 L 341.372,-121.162 L 341.174,-122.188 L 341.026,-123.363 L 340.935,-124.663 L 340.906,-126.06 L 340.941,-127.525 L 341.045,-129.027 L 341.218,-130.535 L 341.459,-132.016 L 341.766,-133.44 L 342.136,-134.776 L 342.565,-135.996 L 343.046,-137.075 L 343.573,-137.989 L 344.137,-138.72 L 344.731,-139.252 L 345.343,-139.574 L 345.966,-139.679 L 346.588,-139.565 L 347.2,-139.234 L 347.792,-138.693 L 348.355,-137.954 L 348.88,-137.033 L 349.36,-135.947 L 349.786,-134.722 L 350.154,-133.382 L 350.458,-131.955 L 350.696,-130.472 L 350.866,-128.964 L 350.967,-127.463 L 351,-126 L 396,-126" style="stroke:black;fill:none;stroke-width:2.0;stroke-dasharray:-;stroke-linecap:round;stroke-linejoin:round;" /><path d="M 396.0,-126.0000000000001 L 405,-126 L 414,-126" style="stroke:black;fill:none;stroke-width:2.0;stroke-dasharray:-;stroke-linecap:round;stroke-linejoin:round;" /><path d="M 414.0,-126.0000000000001 L 423,-126 L 432,-126" style="stroke:black;fill:none;stroke-width:2.0;stroke-dasharray:-;stroke-linecap:round;stroke-linejoin:round;" /><path d="M 432.0,-126.0000000000001 L 477,-126 M 485.64,-129.6 L 505.8,-142.2 M 513,-126 L 558,-126" style="stroke:black;fill:none;stroke-width:2.0;stroke-dasharray:-;stroke-linecap:round;stroke-linejoin:round;" /><path d="M 558.0,-126.0000000000001 L 567,-126 L 576,-126" style="stroke:black;fill:none;stroke-width:2.0;stroke-dasharray:-;stroke-linecap:round;stroke-linejoin:round;" /><path d="M 576.0,-126.0000000000001 L 621,-126 L 621,-135 L 657,-135 L 657,-117 L 621,-117 L 621,-126 M 657,-126 L 702,-126" style="stroke:black;fill:none;stroke-width:2.0;stroke-dasharray:-;stroke-linecap:round;stroke-linejoin:round;" /><path d="M 621.0,-126.0000000000001 L 657,-126" style="stroke:black;fill:none;stroke-width:2.0;stroke-dasharray:-;stroke-linecap:round;stroke-linejoin:round;" /><path d="M 702.0,-126.0000000000001 L 720,-126 L 738,-126" style="stroke:black;fill:none;stroke-width:2.0;stroke-dasharray:-;stroke-linecap:round;stroke-linejoin:round;" /><path d="M 414.0,-126.0000000000001 L 414,-63 L 414,-0" style="stroke:black;fill:none;stroke-width:2.0;stroke-dasharray:-;stroke-linecap:round;stroke-linejoin:round;" /><path d="M 414.0,-9.592326932761353e-14 L 549,-0 L 684,-0" style="stroke:black;fill:none;stroke-width:2.0;stroke-dasharray:-;stroke-linecap:round;stroke-linejoin:round;" /><path d="M 414.0,-126.0000000000001 L 414,-63 L 414,-0" style="stroke:black;fill:none;stroke-width:2.0;stroke-dasharray:-;stroke-linecap:round;stroke-linejoin:round;" /><path d="M 414.0,-9.592326932761353e-14 L 342,-0 L 270,-0" style="stroke:black;fill:none;stroke-width:2.0;stroke-dasharray:-;stroke-linecap:round;stroke-linejoin:round;" /><path d="M 270.0,-1.1355818323533541e-13 L 270,14.4 L 261,14.4 L 279,14.4 M 263.7,18.72 L 276.3,18.72 M 268.2,23.04 L 271.8,23.04" style="stroke:black;fill:none;stroke-width:2.0;stroke-dasharray:-;stroke-linecap:round;stroke-linejoin:round;" /><path d="M 414.0,-126.0000000000001 L 414,-117 L 414,-108" style="stroke:black;fill:none;stroke-width:2.0;stroke-dasharray:-;stroke-linecap:round;stroke-linejoin:round;" /><path d="M 414.0,-108.0000000000001 L 414,-81 L 423,-78 L 405,-72 L 423,-66 L 405,-60 L 423,-54 L 405,-48 L 414,-45 L 414,-18" style="stroke:black;fill:none;stroke-width:2.0;stroke-dasharray:-;stroke-linecap:round;stroke-linejoin:round;" /><path d="M 414.0,-126.0000000000001 L 468,-126 L 522,-126" style="stroke:black;fill:none;stroke-width:2.0;stroke-dasharray:-;stroke-linecap:round;stroke-linejoin:round;" /><path d="M 522.0,-126.0000000000001 L 522,-117 L 522,-108" style="stroke:black;fill:none;stroke-width:2.0;stroke-dasharray:-;stroke-linecap:round;stroke-linejoin:round;" /><path d="M 522.0,-108.0000000000001 L 522,-75.6 M 522,-50.4 L 522,-18" style="stroke:black;fill:none;stroke-width:2.0;stroke-dasharray:-;stroke-linecap:round;stroke-linejoin:round;" /><path d="M 531.0,-59.40000000000009 L 531,-63 L 513,-63 L 513,-66.6" style="stroke:black;fill:none;stroke-width:2.0;stroke-dasharray:-;stroke-linecap:round;stroke-linejoin:round;" /><text x="-21.599999999999994" y="-84.0" dominant-baseline="central" fill="black" font-size="14.0" font-family="sans" text-anchor="end"><tspan x="-21.599999999999994" dy="14.0">12V</tspan><tspan x="-21.599999999999994" dy="14.0">Supply</tspan></text><text x="189.0" y="-152.6" dominant-baseline="ideographic" fill="black" font-size="14.0" font-family="sans" text-anchor="middle"><tspan x="189.0" dy="14.0">F1 (input)</tspan></text><text x="333.0" y="-199.2788844693111" dominant-baseline="ideographic" fill="black" font-size="14.0" font-family="sans" text-anchor="middle"><tspan x="333.0" dy="14.0">Boost Converter</tspan><tspan x="333.0" dy="14.0">12V to 80-650V</tspan><tspan x="333.0" dy="14.0">(non-isolated)</tspan><tspan x="333.0" dy="14.0">[controlled by X9C503S]</tspan></text><circle cx="481.32" cy="-126" r="4.32" style="stroke:black;fill:white;stroke-width:2.0;stroke-dasharray:-;" /><circle cx="508.68" cy="-126" r="4.32" style="stroke:black;fill:white;stroke-width:2.0;stroke-dasharray:-;" /><text x="495.0" y="-173.8000000000001" dominant-baseline="ideographic" fill="black" font-size="14.0" font-family="sans" text-anchor="middle"><tspan x="495.0" dy="14.0">Precharge</tspan><tspan x="495.0" dy="14.0">Relay</tspan></text><text x="639.0" y="-152.6000000000001" dominant-baseline="ideographic" fill="black" font-size="14.0" font-family="sans" text-anchor="middle"><tspan x="639.0" dy="14.0">F2 (output)</tspan></text><text x="414.0" y="-28.40000000000009" dominant-baseline="hanging" fill="black" font-size="14.0" font-family="sans" text-anchor="middle"><tspan x="414.0" dy="14.0">4x 140k</tspan><tspan x="414.0" dy="14.0">(bias)</tspan></text><text x="522.0" y="-28.40000000000009" dominant-baseline="hanging" fill="black" font-size="14.0" font-family="sans" text-anchor="middle"><tspan x="522.0" dy="14.0">TVS</tspan><tspan x="522.0" dy="14.0">420V clamp</tspan></text><circle cx="414" cy="-126" r="2.7" style="stroke:black;fill:black;stroke-width:2.0;stroke-dasharray:-;" /><circle cx="738" cy="-126" r="2.7" style="stroke:black;fill:white;stroke-width:2.0;stroke-dasharray:-;" /><text x="744.3000000000001" y="-140.0000000000001" dominant-baseline="central" fill="black" font-size="14.0" font-family="sans" text-anchor="start"><tspan x="744.3000000000001" dy="14.0">HV+</tspan></text><circle cx="684" cy="-0" r="2.7" style="stroke:black;fill:white;stroke-width:2.0;stroke-dasharray:-;" /><text x="690.3000000000001" y="-14.000000000000096" dominant-baseline="central" fill="black" font-size="14.0" font-family="sans" text-anchor="start"><tspan x="690.3000000000001" dy="14.0">HV-</tspan></text></svg>